# xmcd
# 
# Track frame offsets:
#     225
#     15895
#     32316
#     53173
#     91218
#     103989
#     124153
#     142034
#     158892
#     180269
#     192994
#     203313
#     222831
#     242135
#     259388
#     272538
#     288448
#     299495
#     311798
#     332479
# 
# Disc length: 4598
# 
# Revision: 0
# Processed by: cddbd v1.5.2PL0 Copyright (c) Steve Scherf et al.
# Submitted via: fre:ac v1.0.31
# 
DISCID=2011f314
DTITLE=Various Artist - Hairy Bikers Road Trip CD2
DYEAR=2019
DGENRE=Rock
TTITLE0=Rolling Stones - Start Me Up
TTITLE1=The Who - Won't Get Fooled Again
TTITLE2=Lynyrd Skynyrd - Sweet Home Alabama
TTITLE3=Don McLean - American Pie
TTITLE4=Canned Heat - Going Up The Country
TTITLE5=Steve Earle - Copperhead Road
TTITLE6=The Knack - My Sharona
TTITLE7=Survivor - Eye of The Tiger
TTITLE8=Quiet Riot - Cum on Feel the Noize
TTITLE9=Pat Benatar - Hit Me With Your Best Shot
TTITLE10=Blondie - Hanging On The Telephone
TTITLE11=Mr Mister - Broken Wings
TTITLE12=Poison - Every Rose Has Its Thorn
TTITLE13=Free - Fire and Water
TTITLE14=ZZ Top - Sharp Dressed Man
TTITLE15=John Mellencamp - Hurts So Good
TTITLE16=Ram Jam - Black Betty
TTITLE17=Motörhead - Ace of Spades
TTITLE18=Iggy Pop - The Passenger
TTITLE19=The Ramones - Sheena Is A Punk Rocker
EXTD=
EXTT0=
EXTT1=
EXTT2=
EXTT3=
EXTT4=
EXTT5=
EXTT6=
EXTT7=
EXTT8=
EXTT9=
EXTT10=
EXTT11=
EXTT12=
EXTT13=
EXTT14=
EXTT15=
EXTT16=
EXTT17=
EXTT18=
EXTT19=
PLAYORDER=
